# xmcd
#
# Track frame offsets:
#	150
#	15624
#	31310
#	47224
#	62790
#	78983
#	95178
#	111003
#	127026
#	142961
#
# Disc length: 2132 seconds
#
# Revision: 0
# Processed by: cddbd v1.5.2PL0 Copyright (c) Steve Scherf et al.
# Submitted via: EasyCDDAExtractor 16.0.6.1
#
DISCID=8608520a
DTITLE=Συλλογικός δίσκος - Ιστορία ρεμπέτικου και λαϊκού 08-3
DYEAR=2007
DGENRE=Ποικίλη
TTITLE0=Καζαντζίδης Στέλιος - Ένας μάγκας στο Βοτανικό [Περπινιάδης/Βασιλειάδη
TTITLE0=ς-Περιστέρης/Χρυσίνης]
TTITLE1=Πάνου Πόλυ-Πλέσσας Σταύρος - Πήρα την στράτα την καιά [Γρ. Μπιθικώτσης
TTITLE1=Χαρ. Βασιλειάδης]
TTITLE2=Τσαουσάκης Πρόδρομος-Γρίλλη Μαρία - Μιά στενοχ΄΄ωρια που έχω απόψε [Απ
TTITLE2=Καλδάρας-Κ. Βίρβος]
TTITLE3=Νίνου Μαρίκα-Τσιτσάνης Β.-Γιαννόπουλος - Έλα όπωε είσαι [Βασ. Τσιτσάνη
TTITLE3=ς-Γερ. Τσάκαλος]
TTITLE4=Καζαντζίδης Στέλιος-Στάμου Ρένα - Είν' όλα μαύρα [Γιώργος Μητσάκης]
TTITLE5=Ντάλια Ρένα-Καλλέργης Ν.-Βούλγαρης Ν. - Είμαστε φίλοι [Γιάννης Παπαϊωά
TTITLE5=ννου]
TTITLE6=Μπίνης Τάκης-Λίντα Μαίρη - Ένας αλήτης πέθανε [Κ. Καπλάνης-Κ. Μάνεσης]
TTITLE7=Νίνου Μαρίκα-Μπίνης Τάκης - Γεννήθηκα για να πονώ [Βασ. Τσιτσάνης-Κ. Β
TTITLE7=ίρβος]
TTITLE8=Τζουανάκος Σταύρος-Κυριαζής Γιάννης - Μεσάνυχτα σαν κουρέλι [Γ. Λαύκας
TTITLE8=Χρ. Κολοκοτρώνης]
TTITLE9=Γκρέϋ Καίτη-Ρουμελιώτης Δημήτρης - Το βουνό [Ευάγγ. Πρέκας-Λ. Νταράλας
TTITLE9=]
EXTD=
EXTT0=
EXTT1=
EXTT2=
EXTT3=
EXTT4=
EXTT5=
EXTT6=
EXTT7=
EXTT8=
EXTT9=
PLAYORDER=
